# xmcd CD database file
#
# Track frame offsets:
#	150
#	26741
#	51311
#	63075
#	99022
#	118057
#	131055
#	146748
#	184463
#	192139
#
# Disc length: 2813 seconds
#
# Revision: 0
# Processed by: cddbd v1.5PL3 Copyright (c) Steve Scherf et al.
# Submitted via: CDex 1.51
#
DISCID=900afb0a
DTITLE=Johannes Faber - Kinderspiel
DYEAR=2000
DGENRE=Jazz
TTITLE0=H‰nschen Klein
TTITLE1=Spi mladenec
TTITLE2=Sur le pont d'Avignon
TTITLE3=Sakura
TTITLE4=Rock-a-bye Baby
TTITLE5=Horch, was kommt von drauﬂen rein
TTITLE6=Kis kacsa
TTITLE7=Andeledi oboduo
TTITLE8=Giro girotondo
TTITLE9=Der Mond
EXTD=YEAR: 2000
EXTT0=
EXTT1=
EXTT2=
EXTT3=
EXTT4=
EXTT5=
EXTT6=
EXTT7=
EXTT8=
EXTT9=
PLAYORDER=
